<?xml version="1.0" encoding="utf-8"?>
<svg
	version="1.1"
	xmlns="http://www.w3.org/2000/svg"
	xmlns:xlink="http://www.w3.org/1999/xlink"
	x="0%" y="0%"
	width="100%" height="100%"
	viewBox="0 0 360.0 368.0"
	enable-background="new 0 0 360.0 368.0"
	xml:space="preserve">
	<path
		fill="#FF8308"
		stroke="#FF8308"
		fill-opacity="0.000"
		stroke-opacity="1.000"
		fill-rule="nonzero"
		stroke-width="9.399263"
		stroke-linejoin="miter"
		stroke-linecap="round"
		d="M97.80,149.23L259.77,149.23A29.12 29.12 0 0 1 288.89,178.35L288.89,239.46A29.12 29.12 0 0 1 259.77,268.59L97.80,268.59A29.12 29.12 0 0 1 68.67,239.46L68.67,178.35A29.12 29.12 0 0 1 97.80,149.23z"/>
	<path
		fill="#FF8308"
		stroke="#FF8308"
		fill-opacity="0.000"
		stroke-opacity="1.000"
		fill-rule="nonzero"
		stroke-width="8.450057"
		stroke-linejoin="round"
		stroke-linecap="round"
		d="M205.20,33.12C211.02,33.04,216.85,32.96,219.60,36.55C222.35,40.14,222.04,47.39,221.97,53.93C221.91,60.46,222.09,66.27,219.60,69.92C217.11,73.57,211.96,75.07,205.20,75.50C198.44,75.94,190.07,75.31,181.83,75.16C173.58,75.02,165.47,75.36,158.35,75.40C151.22,75.44,145.09,75.18,140.79,73.60C136.49,72.02,134.02,69.13,132.80,63.18C131.58,57.23,131.59,48.21,132.80,42.71C134.00,37.22,136.39,35.25,139.06,34.24C141.72,33.22,144.66,33.17,147.60,33.12"/>
	<path
		fill="#FF8308"
		stroke="#FF8308"
		fill-opacity="0.000"
		stroke-opacity="1.000"
		fill-rule="nonzero"
		stroke-width="9.399263"
		stroke-linejoin="round"
		stroke-linecap="round"
		d="M122.36,75.12L233.67,75.12A23.82 23.82 0 0 1 257.49,98.94L257.49,124.85A23.82 23.82 0 0 1 233.67,148.67L122.36,148.67A23.82 23.82 0 0 1 98.54,124.85L98.54,98.94A23.82 23.82 0 0 1 122.36,75.12z"/>
	<path
		fill="#FF8308"
		stroke="#FF8308"
		fill-opacity="0.000"
		stroke-opacity="1.000"
		fill-rule="nonzero"
		stroke-width="9.399263"
		stroke-linejoin="round"
		stroke-linecap="round"
		d="M253.14,101.76C242.90,114.85,227.65,118.45,216.46,108.20C212.73,134.31,190.35,134.31,177.92,115.44C163.00,134.31,143.11,129.34,136.48,107.79C121.19,119.39,108.52,112.27,99.23,96.91"/>
	<path
		fill="#FF8308"
		stroke="#FF8308"
		fill-opacity="0.000"
		stroke-opacity="1.000"
		fill-rule="nonzero"
		stroke-width="9.399263"
		stroke-linejoin="miter"
		stroke-linecap="square"
		d="M189.04,51.16C185.59,54.87,182.15,58.58,177.53,58.44C172.92,58.30,167.15,54.31,161.77,48.83C156.40,43.35,151.43,36.38,149.32,30.15C147.22,23.91,147.98,18.41,150.30,14.46C152.63,10.51,156.52,8.10,160.79,7.95C165.07,7.79,169.74,9.88,172.43,13.91C175.13,17.94,175.86,23.91,176.88,23.98C177.90,24.04,179.22,18.20,181.74,13.91C184.27,9.62,188.00,6.89,192.12,7.28C196.25,7.67,200.76,11.19,203.17,15.43C205.58,19.66,205.88,24.60,203.17,30.68C200.46,36.75,194.75,43.95,189.04,51.16z"/>
	<path
		fill="#FF8308"
		stroke="#FF8308"
		fill-opacity="0.000"
		stroke-opacity="1.000"
		fill-rule="nonzero"
		stroke-width="9.45"
		stroke-linejoin="round"
		stroke-linecap="round"
		d="M252.91,150.00C286.17,148.67,290.67,168.00,288.96,193.99C276.59,210.50,262.63,213.88,251.04,193.99C247.71,223.83,212.90,228.80,205.08,202.51C197.51,231.29,165.65,231.29,160.68,201.45C150.31,221.24,122.24,231.29,115.09,192.33C98.67,217.50,79.73,208.62,68.67,190.71C67.55,165.00,78.67,150.00,98.67,149.30L252.91,150.00z"/>
	<path
		fill="#FF8308"
		stroke="#FF8308"
		fill-opacity="0.000"
		stroke-opacity="1.000"
		fill-rule="nonzero"
		stroke-width="8.450057"
		stroke-linejoin="round"
		stroke-linecap="round"
		d="M59.30,301.10L67.73,279.49L76.17,301.10L97.38,301.10L80.39,314.08L88.82,335.71L67.73,322.65L46.64,335.71L55.08,314.08L38.23,301.10L59.30,301.10zM118.35,301.10L97.29,301.10L114.13,314.08L105.70,335.71L126.79,322.65L147.88,335.71L139.44,314.08L156.44,301.10L135.22,301.10L126.79,279.49L118.35,301.10zM177.34,301.10L156.28,301.10L173.12,314.08L164.69,335.71L185.78,322.65L206.87,335.71L198.43,314.08L215.42,301.10L194.21,301.10L185.78,279.49L177.34,301.10zM232.22,301.10L211.15,301.10L228.00,314.08L219.56,335.71L240.65,322.65L261.74,335.71L253.31,314.08L270.30,301.10L249.09,301.10L240.65,279.49L232.22,301.10zM291.23,301.10L270.16,301.10L287.01,314.08L278.57,335.71L299.66,322.65L320.75,335.71L312.32,314.08L329.31,301.10L308.10,301.10L299.66,279.49L291.23,301.10z"/>
</svg>