<svg width="24" height="24" xmlns="http://www.w3.org/2000/svg">
 <g>
  <title>background</title>
  <rect fill="none" id="canvas_background" height="26" width="26" y="-1" x="-1"/>
 </g>

 <g>
  <title>Layer 1</title>
  <g stroke="null" id="svg_1">
   <path fill="#ffffff" id="svg_2" d="m19.37503,1.75043c-2.03957,0 -3.69253,1.65301 -3.69253,3.69253c0,0.55102 0.12116,1.07457 0.3375,1.54339l3.35503,6.58018l3.35503,-6.58023c0.21634,-0.46877 0.3375,-0.99232 0.3375,-1.54334c0,-2.03952 -1.65296,-3.69253 -3.69253,-3.69253zm0,5.90805c-1.22315,0 -2.21552,-0.99237 -2.21552,-2.21552s0.99237,-2.21552 2.21552,-2.21552s2.21552,0.99237 2.21552,2.21552s-0.99237,2.21552 -2.21552,2.21552zm1.1049,6.9913l1.34431,2.68719l-3.40839,1.70346l-1.14238,-5.71474l0.19183,-0.19183l0.02022,-0.02022l-0.70389,-1.3847l-0.36062,0.36058l-4.43104,-2.95402l-4.43104,2.95402l-2.95402,-2.95402l-4.43104,8.86207l5.90805,2.95402l5.90805,-2.95402l5.90805,2.95402l5.90805,-2.95402l-2.49246,-4.98348l-0.83368,1.6357zm-14.91727,4.39065l-3.40696,-1.70346l2.85308,-5.70902l1.50586,1.50586l0.19183,0.19183l-1.14381,5.71479zm5.6888,-2.32514l-4.13102,2.06551l1.06737,-5.33543l0.1904,-0.12693l2.87325,-1.9155l0,5.31235zm1.47701,0l0,-5.31235l2.87325,1.9155l0.18897,0.12693l1.06737,5.33543l-4.12959,-2.06551z"/>
  </g>
  <g id="svg_3"/>
  <g id="svg_4"/>
  <g id="svg_5"/>
  <g id="svg_6"/>
  <g id="svg_7"/>
  <g id="svg_8"/>
  <g id="svg_9"/>
  <g id="svg_10"/>
  <g id="svg_11"/>
  <g id="svg_12"/>
  <g id="svg_13"/>
  <g id="svg_14"/>
  <g id="svg_15"/>
  <g id="svg_16"/>
  <g id="svg_17"/>
 </g>
</svg>