<svg width="24" height="24" xmlns="http://www.w3.org/2000/svg">

 <g>
  <title>background</title>
  <rect fill="none" id="canvas_background" height="402" width="582" y="-1" x="-1"/>
 </g>
 <g>
  <title>Layer 1</title>
  <g id="Mobile Phone">
   <path id="Rectangle 1 (Stroke)" fill-rule="evenodd" fill="#0a1825" d="m4.25,3c0,-1.51878 1.23122,-2.75 2.75,-2.75l10,0c1.5188,0 2.75,1.23122 2.75,2.75l0,18c0,1.5188 -1.2312,2.75 -2.75,2.75l-10,0c-1.51878,0 -2.75,-1.2312 -2.75,-2.75l0,-18zm2.75,-1.25c-0.69036,0 -1.25,0.55964 -1.25,1.25l0,18c0,0.6904 0.55964,1.25 1.25,1.25l10,0c0.6904,0 1.25,-0.5596 1.25,-1.25l0,-18c0,-0.69036 -0.5596,-1.25 -1.25,-1.25l-10,0z" clip-rule="evenodd"/>
   <path id="Rectangle 2 (Stroke)" fill-rule="evenodd" fill="#0a1825" d="m7.36201,0.6057c0.13666,-0.22111 0.37806,-0.3557 0.63799,-0.3557l8,0c0.2599,0 0.5013,0.13459 0.638,0.3557c0.1366,0.22111 0.1491,0.49722 0.0328,0.72971l-0.7236,1.44721c-0.2964,0.59288 -0.9024,0.96738 -1.5652,0.96738l-4.76397,0c-0.66285,0 -1.26881,-0.3745 -1.56524,-0.96738l-0.72361,-1.44721c-0.11625,-0.23249 -0.10382,-0.5086 0.03283,-0.72971zm1.85152,1.1443l0.1809,0.3618c0.04235,0.0847 0.12891,0.1382 0.2236,0.1382l4.76397,0c0.0947,0 0.1812,-0.0535 0.2236,-0.1382l0.1809,-0.3618l-5.57297,0z" clip-rule="evenodd"/>
   <path id="Vector 1 (Stroke)" fill-rule="evenodd" fill="#0a1825" d="m9.25,20c0,-0.4142 0.33579,-0.75 0.75,-0.75l4,0c0.4142,0 0.75,0.3358 0.75,0.75c0,0.4142 -0.3358,0.75 -0.75,0.75l-4,0c-0.41421,0 -0.75,-0.3358 -0.75,-0.75z" clip-rule="evenodd"/>
  </g>
 </g>
</svg>