<svg width="24" height="24" xmlns="http://www.w3.org/2000/svg">

 <g>
  <title>background</title>
  <rect fill="none" id="canvas_background" height="402" width="582" y="-1" x="-1"/>
 </g>
 <g>
  <title>Layer 1</title>
  <path fill="#0a1825" id="svg_1" d="m19.07,13.88l-6.07,6.06l0,2.06l2.06,0l6.06,-6.07m1.58,-2.35l-1.28,-1.28c-0.1,-0.11 -0.24,-0.17 -0.38,-0.17c-0.15,0.01 -0.29,0.06 -0.39,0.17l-1,1l2.05,2l1,-1c0.19,-0.2 0.19,-0.52 0,-0.72m-11.7,4.42l-7,0l0,-10l8,5l8,-5l0,2l2,0l0,-4c0,-1.1 -0.9,-2 -2,-2l-16,0c-1.1,0 -2,0.9 -2,2l0,12c0,1.1 0.9,2 2,2l7,0l0,-2m9,-12l-8,5l-8,-5l16,0z"/>
 </g>
</svg>