<svg width="512" height="512" xmlns="http://www.w3.org/2000/svg">

 <g>
  <title>background</title>
  <rect fill="none" id="canvas_background" height="402" width="582" y="-1" x="-1"/>
 </g>
 <g>
  <title>Layer 1</title>
  <g id="svg_1">
   <path fill="#0a1825" id="svg_2" d="m416,48c-44.188,0 -80,35.813 -80,80c0,11.938 2.625,23.281 7.312,33.438l72.688,142.562l72.688,-142.563c4.687,-10.156 7.312,-21.499 7.312,-33.437c0,-44.187 -35.812,-80 -80,-80zm0,128c-26.5,0 -48,-21.5 -48,-48s21.5,-48 48,-48s48,21.5 48,48s-21.5,48 -48,48zm23.938,151.469l29.125,58.219l-73.844,36.906l-24.75,-123.812l4.156,-4.156l0.438,-0.438l-15.25,-30l-7.813,7.812l-96,-64l-96,64l-64,-64l-96,192l128,64l128,-64l128,64l128,-64l-54,-107.969l-18.062,35.438zm-323.188,95.125l-73.813,-36.906l61.813,-123.688l32.625,32.625l4.156,4.156l-24.781,123.813zm123.25,-50.375l-89.5,44.75l23.125,-115.594l4.125,-2.75l62.25,-41.5l0,115.094zm32,0l0,-115.094l62.25,41.5l4.094,2.75l23.125,115.594l-89.469,-44.75z"/>
  </g>
  <g id="svg_3"/>
  <g id="svg_4"/>
  <g id="svg_5"/>
  <g id="svg_6"/>
  <g id="svg_7"/>
  <g id="svg_8"/>
  <g id="svg_9"/>
  <g id="svg_10"/>
  <g id="svg_11"/>
  <g id="svg_12"/>
  <g id="svg_13"/>
  <g id="svg_14"/>
  <g id="svg_15"/>
  <g id="svg_16"/>
  <g id="svg_17"/>
 </g>
</svg>